<?xml version="1.0" encoding="utf-8"?>
<!-- Generator: Adobe Illustrator 25.4.1, SVG Export Plug-In . SVG Version: 6.00 Build 0)  -->
<svg version="1.1" id="Layer_1" xmlns="http://www.w3.org/2000/svg" xmlns:xlink="http://www.w3.org/1999/xlink" x="0px" y="0px"
	 viewBox="0 0 342.27 53.12" style="enable-background:new 0 0 342.27 53.12;" xml:space="preserve">
<style type="text/css">
	.st0{enable-background:new    ;}
	.st1{fill:#383838;}
</style>
<g class="st0">
	<path class="st1" d="M28.82,10.45c0,1.9-0.42,3.57-1.26,5.02c-0.84,1.45-2.07,2.56-3.68,3.33c2.27,0.8,4.01,2.06,5.22,3.77
		c1.21,1.71,1.81,3.74,1.81,6.08c0,3.85-1.41,6.78-4.23,8.8c-2.82,2.01-7.04,3.02-12.66,3.02H0v-5.05h5V5.05H0V0h14.23
		c4.92,0,8.58,0.86,10.98,2.58C27.62,4.3,28.82,6.92,28.82,10.45z M22.77,10.77c0-1.9-0.67-3.33-2.01-4.28s-3.24-1.44-5.69-1.44h-4
		v11.82h4.06C20.22,16.87,22.77,14.83,22.77,10.77z M24.71,28.55c0-2.24-0.79-3.91-2.38-5.01c-1.58-1.1-4.04-1.65-7.37-1.65h-3.89
		v13.54h2.42c2.42,0,4.4-0.15,5.96-0.44c1.56-0.29,2.82-0.94,3.8-1.93C24.22,32.05,24.71,30.55,24.71,28.55z"/>
	<path class="st1" d="M61.07,22.21v13.32h4.73v4.94h-9.61v-3.46c-2.69,2.63-5.68,3.95-8.97,3.95c-1.74,0-3.33-0.4-4.77-1.21
		c-1.44-0.81-2.6-1.88-3.46-3.24c-0.87-1.35-1.3-2.85-1.3-4.5c0-1.77,0.48-3.35,1.44-4.74c0.96-1.39,2.25-2.46,3.88-3.21
		c1.63-0.75,3.27-1.13,4.91-1.13c2.76,0,5.33,0.81,7.71,2.42v-3.04c0-2.2-0.47-3.78-1.4-4.73c-0.93-0.95-2.46-1.42-4.59-1.42
		c-1.5,0-2.76,0.27-3.77,0.82c-1.01,0.55-1.85,1.37-2.51,2.48l-5.32-1.32c1.2-2.24,2.82-3.91,4.86-5.01
		c2.04-1.1,4.47-1.65,7.28-1.65c3.78,0,6.54,0.86,8.28,2.58C60.19,15.79,61.07,18.5,61.07,22.21z M47.96,36.68
		c2.72,0,5.27-1.14,7.65-3.41v-3.3c-2.42-1.88-4.83-2.82-7.25-2.82c-1.47,0-2.73,0.46-3.8,1.38c-1.07,0.92-1.6,2.08-1.6,3.48
		c0,1.34,0.47,2.46,1.4,3.34C45.29,36.24,46.49,36.68,47.96,36.68z"/>
	<path class="st1" d="M81.37,29.14v6.39h6.15v4.94H70.19v-4.94h5.67V17.21h-5.67v-4.97h10.07v6.39c1.13-2.52,2.53-4.28,4.2-5.28
		c1.67-0.99,4.07-1.49,7.18-1.49h1.26v5.61H91.7c-3.01,0-5.25,0.39-6.71,1.18c-1.47,0.79-2.44,1.98-2.91,3.57
		C81.6,23.83,81.37,26.13,81.37,29.14z"/>
	<path class="st1" d="M124.65,27.77h-23.66c0.34,2.7,1.39,4.84,3.14,6.41c1.75,1.57,3.9,2.35,6.45,2.35c1.86,0,3.59-0.39,5.18-1.16
		c1.59-0.77,2.93-1.95,4-3.54l4.89,2.2c-1.54,2.4-3.56,4.21-6.06,5.44c-2.5,1.23-5.21,1.84-8.15,1.84c-3.04,0-5.75-0.63-8.11-1.91
		s-4.2-3.04-5.52-5.32c-1.32-2.27-1.97-4.83-1.97-7.68c0-2.83,0.65-5.38,1.95-7.65c1.3-2.27,3.07-4.05,5.33-5.33
		s4.74-1.92,7.47-1.92c2.97,0,5.56,0.66,7.77,1.97c2.21,1.32,3.95,3.2,5.22,5.64C123.86,21.55,124.55,24.44,124.65,27.77z
		 M109.69,16.11c-2.09,0-3.93,0.7-5.51,2.11c-1.58,1.41-2.59,3.26-3.03,5.57h17.67c-0.52-2.31-1.62-4.17-3.3-5.57
		C113.84,16.82,111.9,16.11,109.69,16.11z"/>
	<path class="st1" d="M175.86,10.45c0,1.9-0.42,3.57-1.26,5.02c-0.84,1.45-2.07,2.56-3.68,3.33c2.27,0.8,4.02,2.06,5.22,3.77
		c1.21,1.71,1.81,3.74,1.81,6.08c0,3.85-1.41,6.78-4.23,8.8c-2.82,2.01-7.04,3.02-12.66,3.02h-14.02v-5.05h5V5.05h-5V0h14.23
		c4.92,0,8.58,0.86,10.98,2.58C174.66,4.3,175.86,6.92,175.86,10.45z M169.82,10.77c0-1.9-0.67-3.33-2.01-4.28s-3.24-1.44-5.69-1.44
		h-4v11.82h4.06C167.27,16.87,169.82,14.83,169.82,10.77z M171.75,28.55c0-2.24-0.79-3.91-2.38-5.01c-1.58-1.1-4.04-1.65-7.37-1.65
		h-3.89v13.54h2.42c2.42,0,4.4-0.15,5.96-0.44c1.56-0.29,2.82-0.94,3.8-1.93C171.26,32.05,171.75,30.55,171.75,28.55z"/>
	<path class="st1" d="M213.88,27.77h-23.66c0.34,2.7,1.39,4.84,3.14,6.41c1.75,1.57,3.9,2.35,6.45,2.35c1.86,0,3.59-0.39,5.18-1.16
		c1.59-0.77,2.93-1.95,4-3.54l4.89,2.2c-1.54,2.4-3.56,4.21-6.06,5.44c-2.5,1.23-5.21,1.84-8.15,1.84c-3.04,0-5.75-0.63-8.11-1.91
		s-4.2-3.04-5.52-5.32c-1.32-2.27-1.97-4.83-1.97-7.68c0-2.83,0.65-5.38,1.95-7.65c1.3-2.27,3.08-4.05,5.33-5.33
		s4.74-1.92,7.47-1.92c2.97,0,5.56,0.66,7.77,1.97c2.21,1.32,3.95,3.2,5.22,5.64C213.09,21.55,213.78,24.44,213.88,27.77z
		 M198.93,16.11c-2.09,0-3.93,0.7-5.51,2.11c-1.58,1.41-2.59,3.26-3.03,5.57h17.67c-0.52-2.31-1.62-4.17-3.3-5.57
		C203.07,16.82,201.13,16.11,198.93,16.11z"/>
	<path class="st1" d="M244.25,22.21v13.32h4.73v4.94h-9.61v-3.46c-2.69,2.63-5.68,3.95-8.97,3.95c-1.74,0-3.33-0.4-4.77-1.21
		c-1.44-0.81-2.6-1.88-3.46-3.24c-0.87-1.35-1.3-2.85-1.3-4.5c0-1.77,0.48-3.35,1.44-4.74s2.25-2.46,3.88-3.21
		c1.63-0.75,3.27-1.13,4.91-1.13c2.76,0,5.33,0.81,7.71,2.42v-3.04c0-2.2-0.47-3.78-1.4-4.73c-0.93-0.95-2.46-1.42-4.59-1.42
		c-1.5,0-2.76,0.27-3.77,0.82c-1.01,0.55-1.85,1.37-2.51,2.48l-5.32-1.32c1.2-2.24,2.82-3.91,4.86-5.01
		c2.04-1.1,4.47-1.65,7.28-1.65c3.78,0,6.54,0.86,8.29,2.58C243.38,15.79,244.25,18.5,244.25,22.21z M231.15,36.68
		c2.72,0,5.27-1.14,7.65-3.41v-3.3c-2.42-1.88-4.83-2.82-7.25-2.82c-1.47,0-2.74,0.46-3.8,1.38c-1.07,0.92-1.6,2.08-1.6,3.48
		c0,1.34,0.47,2.46,1.4,3.34C228.48,36.24,229.68,36.68,231.15,36.68z"/>
	<path class="st1" d="M266.92,36.12c2.49,0,5.18-1.21,8.08-3.63V17.21h-5v-4.97h10.55v23.28h4.83v4.94H275v-3.25
		c-3.26,2.49-6.36,3.73-9.29,3.73c-2.65,0-4.61-0.79-5.87-2.36c-1.26-1.58-1.89-4.19-1.89-7.84V17.21H254v-4.97h9.51V31.9
		c0,1.45,0.26,2.51,0.79,3.2C264.83,35.78,265.7,36.12,266.92,36.12z"/>
	<path class="st1" d="M304.97,12.25v4.97h-5.16v14.8c0,1.54,0.17,2.54,0.5,2.99c0.33,0.46,0.9,0.68,1.71,0.68
		c0.98,0,1.97-0.17,2.95-0.51v5.02c-1.72,0.5-3.11,0.75-4.16,0.75c-2.33,0-4-0.59-5.02-1.76s-1.53-3.18-1.53-6.03V17.21h-3.68v-4.97
		h3.68V7.98l5.56-5.08v9.35H304.97z"/>
	<path class="st1" d="M320.49,17.21l6.12,15.95l5.94-15.95h-3.76v-4.97h13.48v4.97h-4.16l-13.94,35.91h-9.4v-4.83h5.56l3.36-8.3
		l-9.24-22.77h-4.73v-4.97h14.13v4.97H320.49z"/>
</g>
</svg>
